<svg width="521" height="527" viewBox="0 0 521 527" fill="none" xmlns="http://www.w3.org/2000/svg">
<g filter="url(#filter0_f_2_61)">
<path d="M408.746 16C428.158 16 443.894 31.736 443.894 51.1475C443.894 70.5591 428.158 86.2959 408.746 86.2959C400.724 86.2958 393.331 83.6055 387.415 79.0811L343.351 141.84C343.339 141.856 343.326 141.871 343.314 141.888C355.007 150.206 365.678 159.864 375.111 170.635L436.62 128.444C434.838 124.235 433.852 119.607 433.852 114.748C433.853 95.3369 449.589 79.6008 469 79.6006C488.411 79.6008 504.148 95.3369 504.148 114.748C504.148 134.16 488.411 149.896 469 149.896C458.763 149.896 449.549 145.519 443.125 138.534L382.747 179.947C406.404 210.816 420.463 249.428 420.463 291.324L420.459 292.51C419.821 393.182 338.014 474.596 237.191 474.596L236.007 474.592C197.031 474.345 160.943 461.928 131.348 440.955L84.1474 508.181C82.2432 510.893 78.5009 511.548 75.789 509.644C73.0771 507.739 72.423 503.997 74.3271 501.285L121.78 433.698C110.652 424.666 100.605 414.355 91.8593 402.989L25.3945 448.579C22.6619 450.453 18.9271 449.758 17.0527 447.025C15.1784 444.293 15.874 440.558 18.6064 438.684L84.8525 393.245C65.3165 364.103 53.9208 329.044 53.9208 291.324C53.9212 190.107 135.974 108.054 237.191 108.054C272.446 108.054 305.375 118.011 333.322 135.263C333.388 135.155 333.457 135.049 333.53 134.944L379.102 70.0381C375.618 64.5823 373.599 58.1006 373.599 51.1475C373.599 31.7362 389.335 16.0002 408.746 16ZM237.191 123.054C236.345 123.054 235.5 123.062 234.656 123.074C234.96 123.375 235.238 123.712 235.479 124.085C237.279 126.867 236.483 130.583 233.701 132.383C202.749 152.413 179.769 182.133 163.611 211.438C147.455 240.741 138.341 269.231 134.915 286.283C134.262 289.532 131.098 291.636 127.85 290.983C124.601 290.33 122.497 287.168 123.149 283.919C126.816 265.671 136.352 236.025 153.102 205.646C155.785 200.778 158.661 195.882 161.732 191.002C147.876 191.82 134.619 195.861 123.099 201.084C108.654 207.633 97.3197 215.867 91.4579 221.261C89.339 223.211 86.1954 223.345 83.9355 221.747C74.2929 242.953 68.9209 266.511 68.9208 291.324C68.9208 384.258 144.258 459.595 237.191 459.596C309.049 459.596 370.385 414.554 394.511 351.164C393.596 350.742 392.775 350.085 392.147 349.206C375.869 326.405 351.221 309.141 326.632 296.821C302.08 284.52 278.078 277.395 263.673 274.621C260.419 273.994 258.289 270.848 258.916 267.595C259.543 264.341 262.689 262.212 265.942 262.838C281.393 265.813 306.443 273.285 332.007 286.093C356.117 298.173 381.126 315.22 398.862 338.134C402.922 324.089 405.202 309.288 405.439 293.992C405.079 293.647 404.755 293.252 404.48 292.808C385.085 261.453 355.84 237.871 326.87 221.119C297.903 204.369 269.605 194.675 252.627 190.902C252.31 190.832 252.005 190.735 251.712 190.619C240.338 211.035 230.016 234.743 223.005 260.692C207.955 316.394 208.191 382.216 245.754 448.196C247.393 451.076 246.387 454.74 243.508 456.379C240.628 458.018 236.965 457.012 235.325 454.133C195.898 384.878 195.716 315.686 211.42 257.562C226.638 201.238 256.807 155.109 280.932 128.797C266.984 125.052 252.321 123.054 237.191 123.054ZM121.912 325.784C122.755 322.579 126.035 320.664 129.24 321.507C132.445 322.35 134.359 325.631 133.517 328.836C128.617 347.472 130.082 366.66 134.061 383.255C138.044 399.863 144.452 413.478 148.979 420.743C150.732 423.555 149.873 427.256 147.06 429.009C144.248 430.761 140.547 429.902 138.795 427.09C133.577 418.716 126.672 403.9 122.392 386.053C118.108 368.192 116.361 346.898 121.912 325.784ZM293.089 132.561C292.821 133.36 292.382 134.116 291.765 134.77C281.278 145.869 269.334 161.209 257.996 179.83C276.302 184.243 304.325 194.22 332.877 210.73C358.237 225.395 384.297 245.376 404.3 271.465C396.707 206.886 352.548 153.495 293.089 132.561ZM225.422 123.462C169.099 127.353 120.405 158.96 92.8779 204.743C99.5967 199.904 108.225 194.652 118.143 190.155C132.885 183.472 150.817 178.303 169.805 178.895C184.435 158.179 202.806 138.483 225.422 123.462ZM469 103.032C462.53 103.032 457.284 108.278 457.284 114.748C457.284 121.218 462.53 126.465 469 126.465C475.47 126.465 480.717 121.218 480.717 114.748C480.716 108.278 475.47 103.032 469 103.032ZM408.746 39.4316C402.276 39.4319 397.03 44.6772 397.03 51.1475C397.03 57.6179 402.276 62.864 408.746 62.8643C415.217 62.8643 420.463 57.618 420.463 51.1475C420.463 44.6771 415.216 39.4316 408.746 39.4316Z" fill="#F5F5F5"/>
</g>
<defs>
<filter id="filter0_f_2_61" x="0" y="0" width="520.148" height="526.733" filterUnits="userSpaceOnUse" color-interpolation-filters="sRGB">
<feFlood flood-opacity="0" result="BackgroundImageFix"/>
<feBlend mode="normal" in="SourceGraphic" in2="BackgroundImageFix" result="shape"/>
<feGaussianBlur stdDeviation="8" result="effect1_foregroundBlur_2_61"/>
</filter>
</defs>
</svg>
